HIERARCHY
ROOT Hips
{
	OFFSET 0.000000 0.000000 0.000000
	CHANNELS 6 Xposition Yposition Zposition Xrotation Yrotation Zrotation
	JOINT Chest
	{
		OFFSET 0.000000 0.009282 11.569106
		CHANNELS 3 Xrotation Yrotation Zrotation
		JOINT Chest2
		{
			OFFSET 0.000000 -0.016863 9.269641
			CHANNELS 3 Xrotation Yrotation Zrotation
			JOINT Chest3
			{
				OFFSET 0.000000 0.000000 8.374491
				CHANNELS 3 Xrotation Yrotation Zrotation
				JOINT Chest4
				{
					OFFSET 0.000000 0.000000 8.374493
					CHANNELS 3 Xrotation Yrotation Zrotation
					JOINT Neck
					{
						OFFSET 0.000000 -0.000001 12.152554
						CHANNELS 3 Xrotation Yrotation Zrotation
						JOINT Head
						{
							OFFSET 0.000000 -0.040100 7.802319
							CHANNELS 3 Xrotation Yrotation Zrotation
							End Site
							{
								OFFSET 0.000000 -0.020946 14.853096
							}
						}
					}
					JOINT RightCollar
					{
						OFFSET -2.894404 0.000000 6.791374
						CHANNELS 3 Xrotation Yrotation Zrotation
						JOINT RightShoulder
						{
							OFFSET -13.574684 0.000000 0.000000
							CHANNELS 3 Xrotation Yrotation Zrotation
							JOINT RightElbow
							{
								OFFSET -23.923903 0.000000 0.000000
								CHANNELS 3 Xrotation Yrotation Zrotation
								JOINT RightWrist
								{
									OFFSET -19.846718 -0.012765 0.000000
									CHANNELS 3 Xrotation Yrotation Zrotation
									End Site
									{
										OFFSET -14.973145 0.000000 0.000000
									}
								}
							}
						}
					}
					JOINT LeftCollar
					{
						OFFSET 2.894404 0.000000 6.791374
						CHANNELS 3 Xrotation Yrotation Zrotation
						JOINT LeftShoulder
						{
							OFFSET 13.574684 0.000000 0.000000
							CHANNELS 3 Xrotation Yrotation Zrotation
							JOINT LeftElbow
							{
								OFFSET 23.923903 0.000000 0.000000
								CHANNELS 3 Xrotation Yrotation Zrotation
								JOINT LeftWrist
								{
									OFFSET 19.846718 -0.012765 0.000000
									CHANNELS 3 Xrotation Yrotation Zrotation
									End Site
									{
										OFFSET 14.973145 0.000000 0.000000
									}
								}
							}
						}
					}
				}
			}
		}
	}
	JOINT RightHip
	{
		OFFSET -9.469263 -0.004642 0.045487
		CHANNELS 3 Xrotation Yrotation Zrotation
		JOINT RightKnee
		{
			OFFSET 0.000000 -0.002666 -40.478676
			CHANNELS 3 Xrotation Yrotation Zrotation
			JOINT RightAnkle
			{
				OFFSET 0.000000 -0.049110 -35.224068
				CHANNELS 3 Xrotation Yrotation Zrotation
				JOINT RightToe
				{
					OFFSET 0.000000 -12.539530 -6.151390
					CHANNELS 3 Xrotation Yrotation Zrotation
					End Site
					{
						OFFSET 0.000000 -5.044995 -1.291870
					}
				}
			}
		}
	}
	JOINT LeftHip
	{
		OFFSET 9.469263 -0.004642 0.045487
		CHANNELS 3 Xrotation Yrotation Zrotation
		JOINT LeftKnee
		{
			OFFSET 0.000000 -0.002666 -40.478676
			CHANNELS 3 Xrotation Yrotation Zrotation
			JOINT LeftAnkle
			{
				OFFSET 0.000000 -0.049110 -35.224068
				CHANNELS 3 Xrotation Yrotation Zrotation
				JOINT LeftToe
				{
					OFFSET 0.000000 -12.539530 -6.151390
					CHANNELS 3 Xrotation Yrotation Zrotation
					End Site
					{
						OFFSET 0.000000 -5.044995 -1.291870
					}
				}
			}
		}
	}
}
MOTION
Frames: 14
Frame Time: 0.016667
-16.826319 25.052826 83.242622 6.136107 11.721253 -120.057978 8.043626 -0.994802 -0.007861 3.554914 -0.427456 -0.050663 3.554915 -0.427456 -0.050668 2.666212 -0.320310 -0.040485 21.731210 -0.343301 -1.163015 4.174236 -0.299714 -2.226176 -4.365442 -4.818925 -3.527389 32.522407 -37.390539 16.291939 58.533164 5.494752 59.771177 -51.248282 28.554576 89.442727 -7.685483 9.916564 -2.269553 23.250393 44.758421 -3.286787 60.863133 9.042008 -52.632772 -30.854601 -30.642168 -86.874569 12.381494 -0.658687 -3.030477 0.145984 -1.421727 -7.438566 -1.461463 -2.840184 -0.436233 -0.082551 -0.106647 -0.003029 12.702599 4.335549 -0.416668 3.997340 -2.400350 7.451048 -2.558519 1.624719 9.163078 0.095273 0.051568 0.043529 
-16.826319 25.052826 83.242622 6.136107 11.721253 -120.057978 8.043626 -0.994802 -0.007861 3.554914 -0.427456 -0.050663 3.554915 -0.427456 -0.050668 2.666212 -0.320310 -0.040485 21.731210 -0.343301 -1.163015 4.174236 -0.299714 -2.226176 -4.365442 -4.818925 -3.527389 32.522407 -37.390539 16.291939 58.533164 5.494752 59.771177 -51.248282 28.554576 89.442727 -7.685483 9.916564 -2.269553 23.250393 44.758421 -3.286787 60.863133 9.042008 -52.632772 -30.854601 -30.642168 -86.874569 12.381494 -0.658687 -3.030477 0.145984 -1.421727 -7.438566 -1.461463 -2.840184 -0.436233 -0.082551 -0.106647 -0.003029 12.702599 4.335549 -0.416668 3.997340 -2.400350 7.451048 -2.558519 1.624719 9.163078 0.095273 0.051568 0.043529 
-16.829779 25.080065 83.240166 6.186446 11.748525 -120.154898 8.045001 -1.001345 -0.011698 3.556042 -0.432743 -0.050951 3.556042 -0.432742 -0.050961 2.667054 -0.324271 -0.040739 21.761883 -0.319669 -1.164012 4.231595 -0.256674 -2.221232 -4.331033 -4.794983 -3.479978 32.502039 -37.428849 16.307275 58.596917 5.498280 59.716624 -51.279284 28.560716 89.479761 -7.679897 9.915199 -2.255311 23.282187 44.797080 -3.355641 60.892407 9.051980 -52.551790 -30.824056 -30.595235 -86.856695 12.394726 -0.658012 -3.019784 0.214997 -1.475120 -7.409601 -1.413111 -2.809559 -0.367649 -0.127690 -0.078427 0.003708 12.744655 4.284885 -0.304949 4.043476 -2.348023 7.549823 -2.608692 1.634994 9.062708 0.087526 0.028269 0.040669 
-16.820932 25.117632 83.239006 6.234970 11.771089 -120.233213 8.041619 -1.011801 -0.019470 3.555295 -0.438799 -0.052784 3.555293 -0.438799 -0.052783 2.666495 -0.328805 -0.042147 21.798689 -0.290458 -1.164701 4.300424 -0.203614 -2.214136 -4.296121 -4.778779 -3.442123 32.468018 -37.455408 16.299400 58.668661 5.507062 59.673560 -51.306636 28.566940 89.514615 -7.673491 9.920993 -2.243465 23.358407 44.808841 -3.450521 60.940997 9.068889 -52.494645 -30.819060 -30.563549 -86.826130 12.378361 -0.670168 -2.989305 0.322663 -1.537723 -7.407065 -1.361506 -2.753760 -0.290855 -0.179120 -0.063187 0.011513 12.775978 4.214304 -0.181431 4.089142 -2.288187 7.675440 -2.655903 1.672474 8.920633 0.084833 -0.005948 0.035339 
-16.802940 25.170864 83.240997 6.281970 11.796966 -120.300750 8.051106 -1.028363 -0.030655 3.557022 -0.443055 -0.058806 3.557023 -0.443055 -0.058807 2.667798 -0.331963 -0.046678 21.831216 -0.254332 -1.158218 4.361347 -0.139842 -2.192006 -4.255032 -4.760380 -3.390358 32.408759 -37.478894 16.269869 58.736055 5.528173 59.643821 -51.319299 28.576012 89.537838 -7.662606 9.934133 -2.228945 23.433315 44.806703 -3.560308 60.994580 9.103825 -52.440543 -30.851842 -30.513805 -86.826526 12.362355 -0.687396 -2.934308 0.446392 -1.603184 -7.425777 -1.327950 -2.681853 -0.223341 -0.215703 -0.058962 0.020395 12.815789 4.137895 -0.030710 4.120871 -2.242299 7.714881 -2.696935 1.735386 8.856647 0.084317 -0.041120 0.027248 
-16.778929 25.231195 83.247490 6.317869 11.830348 -120.357168 8.071750 -1.035289 -0.033567 3.560245 -0.443255 -0.062351 3.560245 -0.443255 -0.062361 2.670217 -0.332092 -0.049348 21.862659 -0.224522 -1.151966 4.420163 -0.087526 -2.172120 -4.213352 -4.746879 -3.353872 32.352431 -37.504074 16.243228 58.777862 5.547909 59.613085 -51.311765 28.581359 89.547714 -7.634254 9.932470 -2.230584 23.522115 44.804794 -3.710515 61.034857 9.149276 -52.374980 -30.926437 -30.477646 -86.890996 12.336591 -0.701503 -2.847379 0.595974 -1.663634 -7.465498 -1.333745 -2.604198 -0.176852 -0.221569 -0.059217 0.024927 12.854866 4.062982 0.123810 4.144749 -2.199784 7.740118 -2.732093 1.823425 8.757113 0.091444 -0.080775 0.015548 
-16.740711 25.298216 83.256554 6.327323 11.828468 -120.397343 8.071287 -1.033330 -0.037584 3.559719 -0.443090 -0.064902 3.559718 -0.443091 -0.064902 2.669822 -0.331954 -0.051255 21.895527 -0.203985 -1.143191 4.481430 -0.052918 -2.150232 -4.183809 -4.730227 -3.329168 32.317474 -37.543002 16.230526 58.815838 5.582404 59.572452 -51.309921 28.577238 89.562222 -7.599576 9.933580 -2.243379 23.610910 44.801960 -3.858856 61.060552 9.174431 -52.310489 -31.023300 -30.462907 -86.967433 12.233171 -0.723486 -2.728638 0.800451 -1.725153 -7.517677 -1.339683 -2.507687 -0.161400 -0.245465 -0.067350 0.029876 12.836990 3.965785 0.328133 4.184996 -2.130566 7.859496 -2.754195 1.940665 8.522302 0.083962 -0.131822 0.005333 
-16.681044 25.375465 83.266785 6.313813 11.781421 -120.428639 8.046615 -1.030051 -0.039593 3.549969 -0.443163 -0.066664 3.549969 -0.443163 -0.066669 2.662512 -0.331998 -0.052580 21.936305 -0.189622 -1.133069 4.557251 -0.030112 -2.127621 -4.148536 -4.715293 -3.303656 32.282893 -37.592695 16.221117 58.855884 5.621683 59.519033 -51.319272 28.569974 89.589057 -7.586088 9.941463 -2.245786 23.720480 44.800454 -3.989354 61.068025 9.177448 -52.250049 -31.092121 -30.449858 -87.022921 12.049297 -0.772935 -2.593424 1.044800 -1.772517 -7.562317 -1.358557 -2.393882 -0.174806 -0.266388 -0.080913 0.031303 12.756586 3.819515 0.626016 4.229978 -2.023114 7.921951 -2.775605 2.091511 8.238430 0.080342 -0.199833 0.009533 
-16.598421 25.469105 83.277405 6.279270 11.698418 -120.450318 8.006945 -1.025566 -0.041340 3.533148 -0.442551 -0.068889 3.533148 -0.442550 -0.068889 2.649897 -0.331527 -0.054229 21.981089 -0.182749 -1.122215 4.640435 -0.021267 -2.105758 -4.150370 -4.705812 -3.280072 32.282910 -37.631890 16.214008 58.900833 5.646634 59.462138 -51.317670 28.564041 89.602738 -7.572997 9.947816 -2.235164 23.795085 44.810228 -4.077958 61.073817 9.165574 -52.199680 -31.100597 -30.444393 -87.047004 11.806953 -0.845753 -2.469419 1.310284 -1.811741 -7.605323 -1.389213 -2.266154 -0.181403 -0.281879 -0.092315 0.027172 12.605885 3.640586 0.955902 4.312123 -1.895794 7.841106 -2.815098 2.276329 8.116410 0.080616 -0.280683 0.030861 
-16.492081 25.566872 83.287399 6.214852 11.592968 -120.454047 7.945241 -1.007808 -0.055163 3.514161 -0.440425 -0.070415 3.514163 -0.440424 -0.070416 2.635660 -0.329926 -0.055349 22.026848 -0.182700 -1.111060 4.725285 -0.025005 -2.085270 -4.153733 -4.690273 -3.266274 32.288688 -37.662578 16.213742 58.960652 5.659209 59.405905 -51.294232 28.559946 89.599938 -7.563860 9.962260 -2.221738 23.786586 44.816826 -4.077071 61.114333 9.162641 -52.175357 -31.065200 -30.451336 -87.051984 11.503826 -0.920916 -2.383459 1.603803 -1.846429 -7.659009 -1.430019 -2.131892 -0.151106 -0.294287 -0.099067 0.019091 12.388075 3.441133 1.251314 4.449726 -1.741969 7.692518 -2.849478 2.471019 8.054644 0.056274 -0.349204 0.042478 
-16.370556 25.666918 83.297081 6.140494 11.500930 -120.457476 7.898549 -0.977076 -0.066205 3.498570 -0.433620 -0.070949 3.498572 -0.433620 -0.070950 2.623966 -0.324820 -0.055696 22.066972 -0.192585 -1.100427 4.799553 -0.046675 -2.068480 -4.153101 -4.672902 -3.248468 32.280178 -37.699898 16.194554 59.040749 5.672969 59.353545 -51.260402 28.556630 89.587985 -7.573578 9.979475 -2.187685 23.744021 44.803500 -4.025034 61.188974 9.172190 -52.185900 -31.025144 -30.468494 -87.061389 11.197747 -0.991479 -2.345974 1.913559 -1.865247 -7.666129 -1.516036 -2.008490 -0.118895 -0.276426 -0.098469 0.006441 12.137603 3.250119 1.463852 4.642214 -1.577574 7.521439 -2.905283 2.644391 8.048081 0.043118 -0.391803 0.052354 
-16.237282 25.756226 83.304558 6.059726 11.419522 -120.454402 7.866477 -0.932905 -0.079126 3.490990 -0.421789 -0.069175 3.490990 -0.421789 -0.069183 2.618279 -0.315959 -0.054301 22.096005 -0.213371 -1.090995 4.853073 -0.087814 -2.056919 -4.142569 -4.664244 -3.227089 32.253369 -37.742871 16.163677 59.120635 5.692498 59.303561 -51.230773 28.556049 89.577576 -7.580298 9.985277 -2.150198 23.709024 44.780797 -3.973264 61.245070 9.180422 -52.224221 -30.995200 -30.496539 -87.081299 10.897569 -1.055780 -2.346391 2.209625 -1.867707 -7.641791 -1.614449 -1.909997 -0.088962 -0.243612 -0.084770 -0.009260 11.855378 3.088532 1.554271 4.890307 -1.439296 7.367548 -2.966626 2.796359 8.129840 0.024652 -0.400201 0.055970 
-16.101028 25.833370 83.308640 5.970383 11.356459 -120.459948 7.856194 -0.867142 -0.086005 3.492814 -0.405532 -0.060186 3.492816 -0.405532 -0.060186 2.619639 -0.303816 -0.047466 22.115618 -0.241838 -1.084578 4.889002 -0.142010 -2.053026 -4.098718 -4.651944 -3.219191 32.218009 -37.797901 16.162485 59.188971 5.729298 59.253442 -51.209138 28.569225 89.580725 -7.545917 9.983420 -2.137506 23.666827 44.748152 -3.931777 61.246156 9.171016 -52.292355 -30.963727 -30.536393 -87.103422 10.622848 -1.100541 -2.384449 2.466559 -1.859481 -7.622338 -1.709884 -1.832289 -0.012284 -0.198237 -0.062801 -0.023795 11.533038 2.985941 1.554131 5.223759 -1.321623 7.232432 -3.059757 2.892493 8.387705 0.003575 -0.369628 0.031789 
-15.959131 25.895195 83.308121 5.899029 11.283351 -120.485862 7.867143 -0.811538 -0.073259 3.499629 -0.386033 -0.044374 3.499628 -0.386033 -0.044379 2.624740 -0.289280 -0.035493 22.131433 -0.276901 -1.082991 4.917829 -0.206894 -2.059822 -4.043078 -4.652936 -3.224090 32.191153 -37.844005 16.194927 59.248326 5.777469 59.201798 -51.197558 28.585561 89.591366 -7.507468 9.974914 -2.134537 23.642234 44.710838 -3.898616 61.190401 9.118523 -52.373703 -30.914454 -30.570527 -87.119063 10.352843 -1.156328 -2.409292 2.692287 -1.847543 -7.595297 -1.789902 -1.764553 0.062057 -0.152815 -0.040527 -0.037242 11.173387 2.864266 1.512664 5.645124 -1.225226 7.060544 -3.197299 3.011292 8.606721 -0.018362 -0.340457 0.028743 
